<?xml version="1.0" encoding="utf-8"?>
<!-- Generator: Adobe Illustrator 16.0.0, SVG Export Plug-In . SVG Version: 6.00 Build 0)  -->
<!DOCTYPE svg PUBLIC "-//W3C//DTD SVG 1.1//EN" "http://www.w3.org/Graphics/SVG/1.1/DTD/svg11.dtd">
<svg version="1.1" id="Layer_1" xmlns="http://www.w3.org/2000/svg" xmlns:xlink="http://www.w3.org/1999/xlink" x="0px" y="0px"
	 width="16.799px" height="16.293px" viewBox="0 0 16.799 16.293" enable-background="new 0 0 16.799 16.293" xml:space="preserve">
<path fill="#FFB600" d="M13.343,3.055v9.314H4.806V3.055H13.343z M12.566,4.608H5.581v6.986h6.985V4.608z M7.133,5.384H6.357V6.16
	h0.775V5.384z M7.133,6.936H6.357v0.776h0.775V6.936z M7.133,8.49H6.357v0.775h0.775V8.49z M7.133,10.042H6.357v0.776h0.775V10.042z
	 M11.791,5.384H7.91V6.16h3.881V5.384z M11.791,6.936H7.91v0.776h3.881V6.936z M11.791,8.49H7.91v0.775h3.881V8.49z M11.791,10.818
	H7.91v-0.776h3.881V10.818z"/>
</svg>
