<?xml version="1.0" encoding="utf-8"?>
<!-- Generator: Adobe Illustrator 16.0.0, SVG Export Plug-In . SVG Version: 6.00 Build 0)  -->
<!DOCTYPE svg PUBLIC "-//W3C//DTD SVG 1.1//EN" "http://www.w3.org/Graphics/SVG/1.1/DTD/svg11.dtd">
<svg version="1.1" id="Layer_1" xmlns="http://www.w3.org/2000/svg" xmlns:xlink="http://www.w3.org/1999/xlink" x="0px" y="0px"
	 width="16.799px" height="16.293px" viewBox="0 0 16.799 16.293" enable-background="new 0 0 16.799 16.293" xml:space="preserve">
<path fill="#FF386A" d="M13.343,2.722v9.314H4.806V2.722H13.343z M12.566,4.274H5.581v6.986h6.985V4.274z M7.133,5.051H6.357v0.775
	h0.775V5.051z M7.133,6.603H6.357v0.776h0.775V6.603z M7.133,8.156H6.357v0.775h0.775V8.156z M7.133,9.708H6.357v0.776h0.775V9.708z
	 M11.791,5.051H7.91v0.775h3.881V5.051z M11.791,6.603H7.91v0.776h3.881V6.603z M11.791,8.156H7.91v0.775h3.881V8.156z
	 M11.791,10.484H7.91V9.708h3.881V10.484z"/>
</svg>
