<?xml version="1.0" encoding="utf-8"?>
<!-- Generator: Adobe Illustrator 16.0.0, SVG Export Plug-In . SVG Version: 6.00 Build 0)  -->
<!DOCTYPE svg PUBLIC "-//W3C//DTD SVG 1.1//EN" "http://www.w3.org/Graphics/SVG/1.1/DTD/svg11.dtd">
<svg version="1.1" id="Layer_1" xmlns="http://www.w3.org/2000/svg" xmlns:xlink="http://www.w3.org/1999/xlink" x="0px" y="0px"
	 width="16.799px" height="16.293px" viewBox="0 0 16.799 16.293" enable-background="new 0 0 16.799 16.293" xml:space="preserve">
<g>
	<path fill="#FFB600" d="M4.064,10.587l2.866,1.059V5.682l-2.866-1.06v4.771c0,0,0.001,0,0.001,0L4.064,9.401V10.587z M6.814,7.233
		l0.012,0.12l-0.003,0.12c-0.073,0-0.138,0.007-0.214,0.021L6.562,7.259C6.654,7.242,6.734,7.233,6.814,7.233z M6.318,7.311
		l0.048,0.236L6.339,7.55C6.313,7.553,6.257,7.571,6.183,7.613L6.063,7.404C6.131,7.367,6.229,7.32,6.318,7.311z M5.849,7.555
		L6.001,7.74C5.948,7.785,5.892,7.836,5.837,7.896L5.662,7.733C5.721,7.669,5.784,7.609,5.849,7.555z M5.499,7.93l0.193,0.142
		C5.649,8.131,5.607,8.194,5.566,8.264L5.359,8.144C5.404,8.066,5.451,7.996,5.499,7.93z M5.243,8.37l0.219,0.098
		C5.432,8.535,5.404,8.607,5.378,8.682L5.151,8.605C5.179,8.522,5.21,8.444,5.243,8.37z M5.082,8.843l0.23,0.067
		C5.285,9,5.25,9.083,5.208,9.158L4.999,9.039C5.032,8.98,5.06,8.913,5.082,8.843z M4.873,9.201l0.165,0.175
		C4.971,9.438,4.895,9.491,4.81,9.533L4.705,9.318C4.767,9.287,4.824,9.248,4.873,9.201z M4.503,9.385l0.049,0.236
		C4.469,9.639,4.381,9.646,4.29,9.647l-0.003-0.24C4.362,9.407,4.436,9.399,4.503,9.385z"/>
	<path fill="#FFB600" d="M10.388,4.623v5.962l2.847,1.054V5.675L10.388,4.623z M12.602,9.001L12.38,9.092
		c-0.028-0.071-0.059-0.149-0.088-0.232l0.226-0.08C12.546,8.859,12.574,8.934,12.602,9.001z M12.44,8.554l-0.229,0.075
		c-0.025-0.077-0.051-0.155-0.075-0.233l0.229-0.071C12.39,8.401,12.415,8.478,12.44,8.554z M10.526,7.841l-0.114-0.211
		c0.083-0.044,0.157-0.083,0.224-0.112l0.1,0.218C10.673,7.764,10.603,7.8,10.526,7.841z M10.945,7.661l-0.062-0.231
		c0.075-0.02,0.157-0.04,0.243-0.057l0.046,0.234C11.093,7.624,11.016,7.642,10.945,7.661z M11.622,7.571
		c-0.03-0.002-0.06-0.002-0.088-0.003c-0.045,0-0.09,0.001-0.135,0.006l-0.022-0.238c0.055-0.005,0.11-0.006,0.16-0.007
		c0.035,0,0.069,0.001,0.103,0.003L11.622,7.571z M11.815,7.615l0.099-0.219c0.105,0.048,0.185,0.12,0.232,0.215l-0.214,0.11
		C11.91,7.674,11.871,7.64,11.815,7.615z M12.228,7.863l0.068,0.232l-0.23,0.068L11.997,7.93L12.228,7.863z M13.013,9.735
		L12.64,9.55l-0.185,0.374l-0.217-0.105l0.187-0.374L12.05,9.259l0.107-0.215l0.374,0.185l0.184-0.374l0.216,0.106l-0.186,0.374
		l0.374,0.185L13.013,9.735z"/>
	<path fill="#FFB600" d="M10.098,4.622L7.22,5.677v1.635c0.042,0.017,0.084,0.037,0.126,0.059L7.232,7.582
		C7.228,7.58,7.224,7.578,7.22,7.576v4.074l2.878-1.063V8.062L9.986,7.868l0.111-0.063V4.622z M7.594,7.859
		c-0.022-0.02-0.045-0.04-0.067-0.061c-0.037-0.034-0.074-0.065-0.11-0.094l0.148-0.188C7.605,7.548,7.647,7.583,7.69,7.623
		C7.71,7.642,7.73,7.661,7.75,7.679L7.594,7.859z M8.005,8.155C7.936,8.114,7.864,8.068,7.792,8.017l0.14-0.195
		c0.065,0.048,0.13,0.089,0.193,0.125L8.005,8.155z M8.461,8.368C8.388,8.341,8.31,8.309,8.229,8.272L8.33,8.054
		c0.076,0.035,0.147,0.064,0.215,0.089L8.461,8.368z M8.899,8.527C8.853,8.502,8.772,8.475,8.693,8.449L8.77,8.221
		c0.108,0.037,0.185,0.063,0.245,0.096L8.899,8.527z M9.228,8.533L9.146,8.307c0.061-0.021,0.131-0.054,0.209-0.092l0.106,0.214
		C9.374,8.473,9.295,8.508,9.228,8.533z M9.682,8.315l-0.114-0.21c0.066-0.037,0.138-0.076,0.209-0.117l0.118,0.208
		C9.822,8.237,9.75,8.278,9.682,8.315z"/>
</g>
</svg>
