<?xml version="1.0" encoding="utf-8"?>
<!-- Generator: Adobe Illustrator 16.0.0, SVG Export Plug-In . SVG Version: 6.00 Build 0)  -->
<!DOCTYPE svg PUBLIC "-//W3C//DTD SVG 1.1//EN" "http://www.w3.org/Graphics/SVG/1.1/DTD/svg11.dtd">
<svg version="1.1" id="Layer_1" xmlns="http://www.w3.org/2000/svg" xmlns:xlink="http://www.w3.org/1999/xlink" x="0px" y="0px"
	 width="16.799px" height="16.293px" viewBox="0 0 16.799 16.293" enable-background="new 0 0 16.799 16.293" xml:space="preserve">
<path fill="#FFB600" d="M3.357,4.24V3.411c0-0.114,0.038-0.213,0.119-0.294c0.08-0.08,0.177-0.119,0.294-0.119h0.826
	c0.117,0,0.216,0.039,0.294,0.119c0.082,0.081,0.121,0.18,0.121,0.294V4.24c0,0.111-0.039,0.207-0.121,0.289
	C4.812,4.611,4.714,4.654,4.597,4.654H3.771c-0.117,0-0.214-0.043-0.294-0.125C3.396,4.447,3.357,4.352,3.357,4.24z M3.357,6.725
	V5.898c0-0.117,0.038-0.216,0.119-0.295c0.08-0.082,0.177-0.119,0.294-0.119h0.826c0.117,0,0.216,0.037,0.294,0.119
	c0.082,0.079,0.121,0.178,0.121,0.295v0.826c0,0.111-0.039,0.207-0.121,0.291C4.812,7.097,4.714,7.139,4.597,7.139H3.771
	c-0.117,0-0.214-0.042-0.294-0.123C3.396,6.932,3.357,6.836,3.357,6.725z M3.357,9.21V8.38c0-0.116,0.038-0.214,0.119-0.294
	c0.08-0.078,0.177-0.121,0.294-0.121h0.826c0.117,0,0.216,0.043,0.294,0.121c0.082,0.08,0.121,0.178,0.121,0.294v0.83
	c0,0.107-0.039,0.206-0.121,0.288C4.812,9.58,4.714,9.621,4.597,9.621H3.771c-0.117,0-0.214-0.041-0.294-0.123
	C3.396,9.416,3.357,9.317,3.357,9.21z M3.357,11.693v-0.829c0-0.114,0.038-0.213,0.119-0.294c0.08-0.081,0.177-0.119,0.294-0.119
	h0.826c0.117,0,0.216,0.038,0.294,0.119c0.082,0.081,0.121,0.18,0.121,0.294v0.829c0,0.108-0.039,0.206-0.121,0.289
	c-0.078,0.082-0.177,0.124-0.294,0.124H3.771c-0.117,0-0.214-0.042-0.294-0.124C3.396,11.899,3.357,11.802,3.357,11.693z M5.84,4.24
	V3.411c0-0.114,0.041-0.213,0.12-0.294c0.082-0.08,0.177-0.119,0.294-0.119h6.625c0.114,0,0.212,0.039,0.294,0.119
	c0.078,0.081,0.119,0.18,0.119,0.294V4.24c0,0.111-0.041,0.207-0.119,0.289c-0.082,0.082-0.18,0.125-0.294,0.125H6.254
	c-0.117,0-0.212-0.043-0.294-0.125C5.881,4.447,5.84,4.352,5.84,4.24z M5.84,6.725V5.898c0-0.117,0.041-0.216,0.12-0.295
	c0.082-0.082,0.177-0.119,0.294-0.119h6.625c0.114,0,0.212,0.037,0.294,0.119c0.078,0.079,0.119,0.178,0.119,0.295v0.826
	c0,0.111-0.041,0.207-0.119,0.291c-0.082,0.081-0.18,0.123-0.294,0.123H6.254c-0.117,0-0.212-0.042-0.294-0.123
	C5.881,6.932,5.84,6.836,5.84,6.725z M5.84,9.21V8.38c0-0.116,0.041-0.214,0.12-0.294c0.082-0.078,0.177-0.121,0.294-0.121h6.625
	c0.114,0,0.212,0.043,0.294,0.121c0.078,0.08,0.119,0.178,0.119,0.294v0.83c0,0.107-0.041,0.206-0.119,0.288
	c-0.082,0.082-0.18,0.123-0.294,0.123H6.254c-0.117,0-0.212-0.041-0.294-0.123C5.881,9.416,5.84,9.317,5.84,9.21z M5.84,11.693
	v-0.829c0-0.114,0.041-0.213,0.12-0.294c0.082-0.081,0.177-0.119,0.294-0.119h6.625c0.114,0,0.212,0.038,0.294,0.119
	c0.078,0.081,0.119,0.18,0.119,0.294v0.829c0,0.108-0.041,0.206-0.119,0.289c-0.082,0.082-0.18,0.124-0.294,0.124H6.254
	c-0.117,0-0.212-0.042-0.294-0.124C5.881,11.899,5.84,11.802,5.84,11.693z"/>
</svg>
