<?xml version="1.0" encoding="utf-8"?>
<!-- Generator: Adobe Illustrator 16.0.0, SVG Export Plug-In . SVG Version: 6.00 Build 0)  -->
<!DOCTYPE svg PUBLIC "-//W3C//DTD SVG 1.1//EN" "http://www.w3.org/Graphics/SVG/1.1/DTD/svg11.dtd">
<svg version="1.1" id="Layer_1" xmlns="http://www.w3.org/2000/svg" xmlns:xlink="http://www.w3.org/1999/xlink" x="0px" y="0px"
	 width="16.799px" height="16.293px" viewBox="0 0 16.799 16.293" enable-background="new 0 0 16.799 16.293" xml:space="preserve">
<g>
	<g>
		<g>
			<rect x="27.501" y="-0.933" fill="#FFB600" width="1.422" height="4.129"/>
			<rect x="29.316" y="0.016" fill="#FFB600" width="1.42" height="3.182"/>
			<rect x="25.688" y="1.437" fill="#FFB600" width="1.42" height="1.761"/>
		</g>
		<g>
			<path fill="#FFB600" d="M24.208,4.228c0.854,1.153,2.195,1.928,3.725,2.012V4.749c-0.967-0.077-1.822-0.547-2.407-1.251
				L24.208,4.228z"/>
			<path fill="#FFB600" d="M23.232,1.269c0,0.93,0.256,1.799,0.698,2.542l1.301-0.724C24.907,2.56,24.72,1.937,24.72,1.269
				c0-0.996,0.418-1.896,1.088-2.531l-1.092-1.014C23.8-1.375,23.232-0.12,23.232,1.269z"/>
			<path fill="#FFB600" d="M26.196-1.585c0.498-0.352,1.094-0.577,1.735-0.629v-1.492c-1.073,0.062-2.056,0.461-2.843,1.096
				L26.196-1.585z"/>
			<path fill="#FFB600" d="M28.432,6.24c2.647-0.115,4.76-2.295,4.76-4.973s-2.11-4.858-4.76-4.976v1.489
				c1.825,0.113,3.272,1.631,3.272,3.484c0,1.854-1.447,3.37-3.272,3.482V6.24z"/>
		</g>
	</g>
</g>
<polygon points="-768.878,-215.839 -779.943,-213.753 -779.943,-219.131 "/>
<path d="M-801.889-216.281c4.656-1.146,8.114-5.337,8.114-10.347c0-5.891-4.775-10.666-10.667-10.666
	c-0.183,0-0.361,0.018-0.542,0.027c-0.181-0.009-0.359-0.027-0.542-0.027c-5.752,0-10.417,4.664-10.417,10.417
	c0,2.847,1.145,5.425,2.997,7.305l-0.005-0.001v5.378l9.604-1.81c0.375-0.05,1.071-0.182,1.433-0.271"/>
<g>
	<path fill="#FFFFFF" d="M-804.894-232.323c-2.171,0-3.521,1.349-3.521,3.315h1.921c0-0.865,0.543-1.54,1.599-1.54
		c0.938,0,1.496,0.499,1.496,1.203c0,0.513-0.25,0.851-0.909,1.32c-0.763,0.543-1.599,1.203-1.599,2.743v0.338h1.775v-0.338
		c0-0.631,0.264-1.041,0.938-1.496c0.968-0.646,1.717-1.364,1.717-2.567C-801.476-231.076-802.738-232.323-804.894-232.323z"/>
	<rect x="-805.994" y="-222.83" fill="#FFFFFF" width="1.937" height="1.922"/>
</g>
<path d="M8.081,2.268c-2.749,0-4.977,2.229-4.977,4.978c0,1.361,0.546,2.592,1.432,3.491l-0.003-0.002v2.57l4.589-0.866
	c0.179-0.023,0.511-0.086,0.686-0.128l0.011-0.002c2.225-0.549,3.876-2.551,3.876-4.944c0-2.815-2.282-5.097-5.096-5.097H8.081z
	 M8.782,10.097H7.857V9.179h0.925V10.097z M9.195,7.292C8.873,7.51,8.747,7.706,8.747,8.007v0.162H7.899V8.007
	c0-0.735,0.399-1.051,0.764-1.31c0.316-0.225,0.435-0.386,0.435-0.632c0-0.335-0.266-0.573-0.715-0.573
	c-0.504,0-0.764,0.322-0.764,0.735H6.7c0-0.939,0.645-1.584,1.682-1.584c1.03,0,1.632,0.596,1.632,1.422
	C10.015,6.641,9.657,6.984,9.195,7.292z"/>
</svg>
