<?xml version="1.0" encoding="utf-8"?>
<!-- Generator: Adobe Illustrator 16.0.0, SVG Export Plug-In . SVG Version: 6.00 Build 0)  -->
<!DOCTYPE svg PUBLIC "-//W3C//DTD SVG 1.1//EN" "http://www.w3.org/Graphics/SVG/1.1/DTD/svg11.dtd">
<svg version="1.1" id="Layer_1" xmlns="http://www.w3.org/2000/svg" xmlns:xlink="http://www.w3.org/1999/xlink" x="0px" y="0px"
	 width="16.799px" height="16.293px" viewBox="0 0 16.799 16.293" enable-background="new 0 0 16.799 16.293" xml:space="preserve">
<path fill="#FFB600" d="M9.076,3.923c-2.045,0-3.702,1.654-3.702,3.698c0,2.043,1.657,3.7,3.702,3.7c2.044,0,3.7-1.657,3.7-3.7
	C12.776,5.577,11.12,3.923,9.076,3.923z M9.562,9.966H8.59V6.827h0.972V9.966z M9.472,6.236C9.363,6.347,9.23,6.401,9.076,6.401
	c-0.155,0-0.288-0.055-0.398-0.165S8.514,5.993,8.514,5.839s0.054-0.287,0.164-0.396c0.11-0.111,0.243-0.165,0.398-0.165
	c0.154,0,0.287,0.054,0.396,0.165c0.11,0.109,0.166,0.242,0.166,0.396S9.582,6.126,9.472,6.236z"/>
</svg>
