<?xml version="1.0" encoding="utf-8"?>
<!-- Generator: Adobe Illustrator 16.0.0, SVG Export Plug-In . SVG Version: 6.00 Build 0)  -->
<!DOCTYPE svg PUBLIC "-//W3C//DTD SVG 1.1//EN" "http://www.w3.org/Graphics/SVG/1.1/DTD/svg11.dtd">
<svg version="1.1" id="Layer_1" xmlns="http://www.w3.org/2000/svg" xmlns:xlink="http://www.w3.org/1999/xlink" x="0px" y="0px"
	 width="16.799px" height="16.293px" viewBox="0 0 16.799 16.293" enable-background="new 0 0 16.799 16.293" xml:space="preserve">
<path fill="#FFB600" d="M13.338,7.729l-3.487,3.488L4.974,6.333V3.021c0-0.047,0.018-0.088,0.053-0.122
	c0.035-0.035,0.075-0.053,0.122-0.053h3.306L13.338,7.729z M7.199,5.064C7.334,4.93,7.401,4.764,7.401,4.568
	c0-0.194-0.067-0.359-0.202-0.494c-0.141-0.14-0.306-0.21-0.499-0.21c-0.192,0-0.358,0.07-0.499,0.21
	c-0.134,0.135-0.202,0.3-0.202,0.494c0,0.195,0.068,0.361,0.202,0.496C6.342,5.203,6.508,5.273,6.7,5.273
	C6.894,5.273,7.059,5.203,7.199,5.064z"/>
</svg>
