<?xml version="1.0" encoding="utf-8"?>
<!-- Generator: Adobe Illustrator 16.0.0, SVG Export Plug-In . SVG Version: 6.00 Build 0)  -->
<!DOCTYPE svg PUBLIC "-//W3C//DTD SVG 1.1//EN" "http://www.w3.org/Graphics/SVG/1.1/DTD/svg11.dtd">
<svg version="1.1" id="Layer_1" xmlns="http://www.w3.org/2000/svg" xmlns:xlink="http://www.w3.org/1999/xlink" x="0px" y="0px"
	 width="56.113px" height="45.109px" viewBox="0 0 56.113 45.109" enable-background="new 0 0 56.113 45.109" xml:space="preserve">
<g>
	<g>
		<g>
			<rect x="24.227" y="19.568" fill="#FFB600" width="1.421" height="4.129"/>
			<rect x="26.043" y="20.515" fill="#FFB600" width="1.42" height="3.182"/>
			<rect x="22.414" y="21.936" fill="#FFB600" width="1.42" height="1.761"/>
		</g>
		<g>
			<path fill="#FFB600" d="M20.934,24.728c0.854,1.154,2.196,1.927,3.724,2.011v-1.491c-0.967-0.077-1.822-0.547-2.407-1.251
				L20.934,24.728z"/>
			<path fill="#FFB600" d="M19.959,21.768c0,0.93,0.256,1.799,0.698,2.542l1.301-0.723c-0.324-0.528-0.512-1.151-0.512-1.819
				c0-0.996,0.418-1.896,1.088-2.531l-1.092-1.014C20.527,19.126,19.959,20.381,19.959,21.768z"/>
			<path fill="#FFB600" d="M22.923,18.915c0.498-0.352,1.093-0.577,1.735-0.629v-1.492c-1.073,0.062-2.056,0.461-2.842,1.095
				L22.923,18.915z"/>
			<path fill="#FFB600" d="M25.158,26.74c2.647-0.115,4.76-2.295,4.76-4.973c0-2.677-2.111-4.858-4.76-4.975v1.489
				c1.826,0.113,3.272,1.631,3.272,3.484c0,1.855-1.446,3.371-3.272,3.483V26.74z"/>
		</g>
	</g>
</g>
</svg>
