<?xml version="1.0" encoding="utf-8"?>
<!-- Generator: Adobe Illustrator 16.0.0, SVG Export Plug-In . SVG Version: 6.00 Build 0)  -->
<!DOCTYPE svg PUBLIC "-//W3C//DTD SVG 1.1//EN" "http://www.w3.org/Graphics/SVG/1.1/DTD/svg11.dtd">
<svg version="1.1" id="Layer_1" xmlns="http://www.w3.org/2000/svg" xmlns:xlink="http://www.w3.org/1999/xlink" x="0px" y="0px"
	 width="16.799px" height="16.293px" viewBox="0 0 16.799 16.293" enable-background="new 0 0 16.799 16.293" xml:space="preserve">
<g>
	<g>
		<g>
			<rect x="7.603" y="6.068" fill="#FFB600" width="1.421" height="4.129"/>
			<rect x="9.418" y="7.016" fill="#FFB600" width="1.42" height="3.182"/>
			<rect x="5.789" y="8.437" fill="#FFB600" width="1.42" height="1.761"/>
		</g>
		<g>
			<path fill="#FFB600" d="M4.31,11.229c0.854,1.153,2.195,1.927,3.724,2.011v-1.491c-0.967-0.077-1.822-0.547-2.407-1.251
				L4.31,11.229z"/>
			<path fill="#FFB600" d="M3.334,8.269c0,0.93,0.256,1.799,0.698,2.542l1.301-0.724C5.009,9.56,4.821,8.937,4.821,8.269
				c0-0.996,0.418-1.896,1.088-2.531L4.817,4.724C3.902,5.626,3.334,6.881,3.334,8.269z"/>
			<path fill="#FFB600" d="M6.298,5.415c0.498-0.352,1.094-0.577,1.735-0.629V3.294C6.96,3.356,5.978,3.755,5.191,4.39L6.298,5.415z
				"/>
			<path fill="#FFB600" d="M8.533,13.24c2.647-0.115,4.76-2.295,4.76-4.973s-2.11-4.858-4.76-4.976v1.489
				c1.826,0.113,3.272,1.631,3.272,3.484c0,1.854-1.446,3.37-3.272,3.482V13.24z"/>
		</g>
	</g>
</g>
</svg>
