<?xml version="1.0" encoding="utf-8"?>
<!-- Generator: Adobe Illustrator 16.0.0, SVG Export Plug-In . SVG Version: 6.00 Build 0)  -->
<!DOCTYPE svg PUBLIC "-//W3C//DTD SVG 1.1//EN" "http://www.w3.org/Graphics/SVG/1.1/DTD/svg11.dtd">
<svg version="1.1" id="Layer_1" xmlns="http://www.w3.org/2000/svg" xmlns:xlink="http://www.w3.org/1999/xlink" x="0px" y="0px"
	 width="16.799px" height="16.293px" viewBox="0 0 16.799 16.293" enable-background="new 0 0 16.799 16.293" xml:space="preserve">
<g>
	<g>
		<path fill="#FF386A" d="M5.935,4.066C5.216,4.798,4.822,5.766,4.823,6.792c0,0.42,0.063,0.83,0.191,1.216l0.012,0.031
			C5.216,8.604,5.532,9.107,5.96,9.537c0.422,0.422,0.94,0.742,1.484,0.927l0.041,0.017c0.39,0.129,0.801,0.193,1.221,0.193
			c1.026-0.001,1.994-0.396,2.718-1.111c0.011-0.009,0.021-0.019,0.048-0.047c0.723-0.729,1.116-1.697,1.116-2.725
			c0-0.42-0.063-0.831-0.203-1.245c-0.188-0.565-0.506-1.07-0.934-1.5c-0.426-0.427-0.932-0.74-1.521-0.941
			c-0.391-0.129-0.8-0.192-1.224-0.192c-1.025,0-1.993,0.396-2.743,1.133L5.935,4.066z M5.418,7.412
			C5.38,7.208,5.36,6.999,5.36,6.79c0-0.275,0.031-0.547,0.098-0.812C5.469,6.043,5.482,6.11,5.497,6.177
			C5.561,6.458,5.663,6.746,5.796,7.03L5.418,7.412z M8.091,3.584C8.027,3.567,7.959,3.558,7.895,3.545
			c0.464-0.112,0.955-0.128,1.433-0.04L8.949,3.884C8.661,3.75,8.374,3.647,8.091,3.584z M9.443,4.152l0.478-0.479
			c0.347,0.136,0.664,0.325,0.949,0.565l-0.563,0.563C10.031,4.556,9.741,4.337,9.443,4.152z M9.314,9.995
			c0.064,0.016,0.133,0.026,0.198,0.039c-0.457,0.113-0.958,0.128-1.434,0.041l0.378-0.381C8.744,9.831,9.031,9.931,9.314,9.995z
			 M7.963,9.428L7.486,9.904C7.141,9.771,6.823,9.582,6.537,9.338L7.1,8.775C7.374,9.022,7.663,9.242,7.963,9.428z M8.525,5.069
			l0.521-0.521C9.352,4.725,9.645,4.94,9.921,5.191L9.325,5.788C9.06,5.531,8.791,5.292,8.525,5.069z M9.323,6.551
			c0.262,0.271,0.502,0.541,0.715,0.803L9.266,8.126C9.001,7.909,8.734,7.669,8.464,7.411L9.323,6.551z M8.881,8.511L8.359,9.031
			C8.052,8.854,7.759,8.64,7.485,8.39l0.598-0.6C8.341,8.045,8.611,8.285,8.881,8.511z M8.082,7.028
			C7.825,6.762,7.585,6.495,7.367,6.227l0.771-0.771C8.401,5.67,8.668,5.907,8.941,6.17L8.082,7.028z M6.984,6.611
			C7.206,6.882,7.446,7.148,7.7,7.413l-0.6,0.599C6.85,7.735,6.634,7.442,6.457,7.138L6.984,6.611z M9.31,8.847
			c0.218,0.16,0.426,0.303,0.619,0.421c0.157,0.096,0.307,0.176,0.44,0.238c-0.278,0.051-0.597,0.039-0.938-0.038
			C9.246,9.425,9.058,9.363,8.869,9.286L9.31,8.847z M9.697,8.461l0.677-0.68c0.132,0.185,0.25,0.354,0.345,0.515
			c0.162,0.27,0.273,0.502,0.32,0.678c0.025,0.092,0.027,0.148,0.021,0.176c-0.021,0.005-0.074,0.005-0.179-0.021
			c-0.174-0.046-0.407-0.156-0.675-0.318C10.048,8.708,9.876,8.592,9.697,8.461z M10.422,6.969c-0.218-0.266-0.459-0.532-0.716-0.8
			l0.598-0.6c0.251,0.278,0.47,0.571,0.644,0.873L10.422,6.969z M8.097,4.732c-0.22-0.163-0.428-0.304-0.619-0.42
			C7.322,4.215,7.173,4.137,7.039,4.073c0.273-0.055,0.594-0.041,0.936,0.038C8.162,4.153,8.35,4.216,8.539,4.295L8.097,4.732z
			 M6.522,4.455C6.697,4.502,6.93,4.61,7.198,4.772c0.16,0.1,0.333,0.214,0.513,0.348L7.034,5.798
			C6.905,5.621,6.788,5.446,6.687,5.285c-0.16-0.269-0.271-0.501-0.317-0.679c-0.027-0.102-0.026-0.16-0.027-0.176
			C6.36,4.428,6.41,4.424,6.522,4.455z M6.206,6.624c-0.078-0.189-0.139-0.38-0.182-0.565C5.946,5.717,5.932,5.401,5.986,5.124
			c0.062,0.137,0.143,0.281,0.237,0.439C6.347,5.765,6.49,5.972,6.646,6.182L6.206,6.624z M6.066,7.528
			C6.252,7.831,6.469,8.12,6.718,8.391L6.156,8.953C5.913,8.669,5.721,8.35,5.588,8.006L6.066,7.528z M11.199,6.956
			c0.078,0.188,0.139,0.379,0.182,0.564c0.078,0.339,0.091,0.656,0.039,0.935c-0.062-0.138-0.145-0.282-0.239-0.438
			c-0.119-0.195-0.261-0.403-0.421-0.619L11.199,6.956z M11.34,6.051c-0.186-0.301-0.403-0.59-0.653-0.861l0.563-0.562
			c0.242,0.285,0.435,0.604,0.568,0.948L11.34,6.051z M11.947,7.6c-0.012-0.063-0.023-0.132-0.039-0.199
			c-0.064-0.281-0.166-0.568-0.299-0.854l0.379-0.379c0.039,0.202,0.057,0.411,0.057,0.622C12.045,7.065,12.012,7.337,11.947,7.6z"
			/>
		<path fill="#FF386A" d="M11.625,9.798c-0.785,0.767-1.824,1.188-2.922,1.188c-1.121,0-2.174-0.438-2.966-1.229
			C4.945,8.964,4.508,7.91,4.508,6.79c0-1.402,0.698-2.708,1.867-3.49C6.499,3.217,6.531,3.049,6.45,2.928
			C6.37,2.806,6.195,2.769,6.075,2.852C4.756,3.734,3.968,5.206,3.968,6.79c0,1.266,0.493,2.453,1.388,3.35
			c0.828,0.825,1.919,1.312,3.078,1.379v0.833H6.901c-0.149,0-0.271,0.121-0.271,0.271c0,0.147,0.122,0.271,0.271,0.271h3.605
			c0.15,0,0.271-0.121,0.271-0.271c0-0.147-0.121-0.271-0.271-0.271H8.974v-0.834c1.14-0.062,2.209-0.534,3.031-1.332
			c0.105-0.104,0.107-0.274,0.004-0.382C11.908,9.701,11.73,9.697,11.625,9.798z"/>
	</g>
</g>
</svg>
