<?xml version="1.0" encoding="utf-8"?>
<!-- Generator: Adobe Illustrator 16.0.0, SVG Export Plug-In . SVG Version: 6.00 Build 0)  -->
<!DOCTYPE svg PUBLIC "-//W3C//DTD SVG 1.1//EN" "http://www.w3.org/Graphics/SVG/1.1/DTD/svg11.dtd">
<svg version="1.1" id="Layer_1" xmlns="http://www.w3.org/2000/svg" xmlns:xlink="http://www.w3.org/1999/xlink" x="0px" y="0px"
	 width="56.113px" height="45.109px" viewBox="0 0 56.113 45.109" enable-background="new 0 0 56.113 45.109" xml:space="preserve">
<g>
	<g>
		<path fill="#FF386A" d="M27.174,18.879c-0.718,0.731-1.113,1.699-1.112,2.724c0,0.42,0.064,0.83,0.192,1.216l0.011,0.031
			c0.191,0.566,0.506,1.07,0.934,1.498c0.422,0.422,0.94,0.744,1.484,0.927l0.041,0.017c0.39,0.129,0.801,0.193,1.221,0.193
			c1.026-0.001,1.993-0.396,2.719-1.111c0.01-0.009,0.021-0.019,0.047-0.047c0.721-0.729,1.116-1.697,1.117-2.725
			c0-0.42-0.065-0.831-0.203-1.245c-0.19-0.565-0.506-1.07-0.934-1.5c-0.426-0.427-0.932-0.74-1.522-0.941
			c-0.39-0.129-0.799-0.194-1.223-0.194c-1.026,0-1.993,0.396-2.743,1.133L27.174,18.879z M26.658,22.224
			C26.62,22.02,26.6,21.811,26.6,21.602c0-0.275,0.032-0.547,0.098-0.81c0.011,0.064,0.024,0.132,0.039,0.198
			c0.064,0.281,0.166,0.569,0.299,0.854L26.658,22.224z M29.331,18.396c-0.065-0.015-0.132-0.026-0.197-0.039
			c0.463-0.112,0.955-0.128,1.432-0.04l-0.378,0.379C29.901,18.562,29.614,18.46,29.331,18.396z M30.682,18.965l0.478-0.479
			c0.346,0.136,0.664,0.325,0.948,0.567l-0.563,0.563C31.27,19.368,30.981,19.149,30.682,18.965z M30.553,24.807
			c0.066,0.016,0.133,0.028,0.199,0.039c-0.457,0.115-0.958,0.128-1.433,0.041l0.378-0.379
			C29.984,24.643,30.271,24.743,30.553,24.807z M29.203,24.24l-0.477,0.477c-0.345-0.134-0.663-0.324-0.949-0.568l0.562-0.562
			C28.614,23.835,28.903,24.054,29.203,24.24z M29.764,19.882l0.523-0.523c0.304,0.177,0.597,0.393,0.874,0.644L30.565,20.6
			C30.299,20.344,30.031,20.104,29.764,19.882z M30.563,21.363c0.262,0.272,0.502,0.541,0.715,0.803l-0.773,0.772
			c-0.264-0.217-0.532-0.457-0.801-0.715L30.563,21.363z M30.121,23.323l-0.523,0.522c-0.306-0.177-0.599-0.392-0.874-0.642
			l0.598-0.6C29.581,22.857,29.85,23.097,30.121,23.323z M29.322,21.841c-0.257-0.267-0.497-0.535-0.715-0.802l0.772-0.772
			c0.262,0.214,0.53,0.453,0.802,0.714L29.322,21.841z M28.223,21.424c0.222,0.269,0.462,0.537,0.716,0.8l-0.599,0.599
			c-0.251-0.276-0.466-0.569-0.643-0.874L28.223,21.424z M30.549,23.659c0.217,0.16,0.425,0.303,0.619,0.421
			c0.158,0.096,0.306,0.176,0.441,0.238c-0.278,0.051-0.597,0.039-0.937-0.038c-0.185-0.043-0.374-0.104-0.563-0.182L30.549,23.659z
			 M30.936,23.273l0.677-0.678c0.133,0.183,0.249,0.354,0.345,0.513c0.163,0.27,0.273,0.502,0.32,0.678
			c0.025,0.092,0.027,0.148,0.022,0.176c-0.021,0.005-0.074,0.005-0.178-0.023c-0.173-0.046-0.407-0.156-0.675-0.318
			C31.288,23.52,31.116,23.404,30.936,23.273z M31.662,21.781c-0.218-0.266-0.459-0.532-0.716-0.8l0.597-0.598
			c0.252,0.278,0.469,0.571,0.644,0.873L31.662,21.781z M29.336,19.545c-0.219-0.163-0.427-0.304-0.619-0.42
			c-0.156-0.098-0.304-0.176-0.439-0.239c0.274-0.055,0.594-0.041,0.935,0.038c0.187,0.042,0.375,0.103,0.565,0.182L29.336,19.545z
			 M27.761,19.267c0.175,0.047,0.408,0.157,0.676,0.319c0.16,0.098,0.333,0.214,0.513,0.346l-0.677,0.678
			c-0.129-0.177-0.246-0.35-0.347-0.513c-0.161-0.267-0.271-0.501-0.318-0.677c-0.027-0.102-0.026-0.16-0.027-0.176
			C27.599,19.24,27.65,19.236,27.761,19.267z M27.446,21.436c-0.078-0.189-0.139-0.38-0.182-0.565
			c-0.078-0.342-0.092-0.657-0.038-0.935c0.062,0.137,0.143,0.283,0.238,0.441c0.123,0.201,0.266,0.408,0.422,0.618L27.446,21.436z
			 M27.305,22.341c0.186,0.301,0.404,0.59,0.653,0.862l-0.562,0.562c-0.243-0.284-0.435-0.602-0.568-0.947L27.305,22.341z
			 M32.439,21.768c0.078,0.189,0.139,0.379,0.182,0.566c0.078,0.339,0.09,0.656,0.038,0.933c-0.062-0.136-0.144-0.282-0.239-0.438
			c-0.119-0.195-0.261-0.403-0.421-0.619L32.439,21.768z M32.58,20.863c-0.186-0.301-0.405-0.59-0.654-0.861l0.563-0.563
			c0.243,0.285,0.434,0.604,0.568,0.948L32.58,20.863z M33.187,22.412c-0.012-0.065-0.024-0.132-0.039-0.199
			c-0.065-0.283-0.166-0.57-0.299-0.854l0.379-0.379c0.038,0.202,0.057,0.411,0.057,0.622
			C33.285,21.878,33.252,22.149,33.187,22.412z"/>
		<path fill="#FF386A" d="M32.865,24.61c-0.786,0.767-1.824,1.188-2.923,1.188c-1.121,0-2.174-0.438-2.966-1.229
			c-0.792-0.793-1.229-1.847-1.229-2.967c0-1.402,0.698-2.708,1.867-3.49c0.124-0.083,0.156-0.251,0.075-0.372
			c-0.08-0.122-0.255-0.159-0.375-0.076c-1.319,0.883-2.107,2.354-2.107,3.938c0,1.266,0.493,2.453,1.387,3.35
			c0.828,0.825,1.918,1.312,3.078,1.379v0.833h-1.533c-0.149,0-0.271,0.121-0.271,0.27c0,0.149,0.122,0.271,0.271,0.271h3.607
			c0.149,0,0.271-0.121,0.271-0.271c0-0.147-0.121-0.27-0.271-0.27h-1.534V26.33c1.139-0.064,2.209-0.534,3.031-1.332
			c0.105-0.104,0.107-0.276,0.004-0.382C33.148,24.513,32.97,24.51,32.865,24.61z"/>
	</g>
</g>
</svg>
