<?xml version="1.0" encoding="utf-8"?>
<!-- Generator: Adobe Illustrator 16.0.0, SVG Export Plug-In . SVG Version: 6.00 Build 0)  -->
<!DOCTYPE svg PUBLIC "-//W3C//DTD SVG 1.1//EN" "http://www.w3.org/Graphics/SVG/1.1/DTD/svg11.dtd">
<svg version="1.1" id="map-svg" class="sidebar-svg" xmlns="http://www.w3.org/2000/svg" xmlns:xlink="http://www.w3.org/1999/xlink" x="0px" y="0px"
	 viewBox="0 0 16.799 16.293" enable-background="new 0 0 16.799 16.293" xml:space="preserve">
<g>
	<g>
		<g>
			<rect x="48.728" y="5.943" fill="#FF386A" width="1.421" height="4.129"/>
			<rect x="50.543" y="6.891" fill="#FF386A" width="1.42" height="3.182"/>
			<rect x="46.914" y="8.312" fill="#FF386A" width="1.42" height="1.761"/>
		</g>
		<g>
			<path fill="#FF386A" d="M45.435,11.104c0.854,1.153,2.195,1.927,3.724,2.011v-1.491c-0.967-0.077-1.822-0.547-2.407-1.251
				L45.435,11.104z"/>
			<path fill="#FF386A" d="M44.459,8.144c0,0.93,0.256,1.799,0.698,2.542l1.301-0.724c-0.324-0.527-0.512-1.15-0.512-1.818
				c0-0.996,0.418-1.896,1.088-2.531l-1.092-1.014C45.027,5.501,44.459,6.756,44.459,8.144z"/>
			<path fill="#FF386A" d="M47.423,5.29c0.498-0.352,1.094-0.577,1.735-0.629V3.169c-1.073,0.062-2.056,0.461-2.842,1.096
				L47.423,5.29z"/>
			<path fill="#FF386A" d="M49.658,13.115c2.647-0.115,4.76-2.295,4.76-4.973s-2.11-4.858-4.76-4.976v1.489
				c1.826,0.113,3.272,1.631,3.272,3.484c0,1.854-1.446,3.37-3.272,3.482V13.115z"/>
		</g>
	</g>
</g>
<g>
	<path fill="#FF386A" d="M13.689,9.432c0.83-2.846-0.812-5.836-3.657-6.665C7.188,1.938,4.197,3.578,3.368,6.423
		c-0.83,2.846,0.811,5.836,3.656,6.666S12.86,12.277,13.689,9.432z M3.724,6.592C4.192,4.983,5.66,3.563,7.156,3.111
		C7.115,3.286,7.329,3.706,7.203,3.889C7.133,3.99,7.008,4.042,6.936,4.142C6.863,4.24,6.842,4.365,6.762,4.458
		c-0.131,0.153-0.34,0.195-0.49,0.324C6.128,4.906,6.047,5.079,5.999,5.259C5.941,5.477,6.036,5.688,6.05,5.904
		C6.065,6.16,6.045,6.418,6.006,6.672C5.922,7.215,6.609,7.455,6.861,7.819c0.112,0.164,0.131,0.373,0.24,0.537
		c0.058,0.086,0.244,0.229,0.289,0.047c0.031-0.126-0.025-0.249-0.055-0.37C7.313,7.939,7.324,7.824,7.247,7.755
		c-0.051-0.047-0.13-0.062-0.175-0.114c-0.081-0.093,0.01-0.194,0.005-0.294C7.062,7.078,6.59,7.326,6.532,7.014
		C6.467,6.66,6.805,6.394,7.129,6.405C7.298,6.41,7.439,6.484,7.57,6.587c0.076,0.061,0.174,0.2,0.271,0.22
		c0.132,0.028,0.203-0.258,0.334-0.306c0.108-0.039,0.22-0.065,0.316-0.128C8.73,6.22,8.899,6.056,9.201,6.037
		c0.219-0.014,0.602-0.08,0.768-0.236c0.152-0.146-0.049-0.488-0.144-0.617C9.749,5.08,9.616,4.981,9.588,4.849
		C9.554,4.693,9.684,4.586,9.81,4.524c0.181-0.088,0.246,0.107,0.301,0.238c0.045,0.108,0.261,0.399,0.413,0.3
		c0.127-0.082,0.048-0.336,0.133-0.456c0.08-0.111,0.174-0.195,0.1-0.336c-0.003-0.005-0.005-0.01-0.008-0.016
		c-0.049-0.08-0.132-0.134-0.182-0.213c-0.1-0.157-0.149-0.557-0.189-0.737c0.379,0.159,0.828,0.462,1.145,0.704
		c-0.011,0.025-0.115,0.175-0.113,0.204c0.004,0.065,0.045,0.119,0.085,0.168c0.092,0.117,0.154,0.235,0.226,0.365
		c0.137,0.247,0.471,0.349,0.505,0.658c0.016,0.144-0.06,0.293,0,0.431c0.049,0.112,0.148,0.187,0.096,0.318
		c-0.041,0.101-0.11,0.212,0.043,0.251c0.06,0.015,0.134,0.01,0.181-0.032c0.065-0.059,0.045-0.164,0.065-0.241
		c0.064-0.25,0.253,0.088,0.38,0.1c0.071,0.187,0.131,0.377,0.179,0.572c-0.024,0.004-0.05,0.008-0.079-0.005
		c-0.055-0.024-0.078-0.102-0.117-0.142c-0.119-0.125-0.198,0.01-0.278,0.112s-0.196,0.19-0.254,0.308
		c-0.076,0.155-0.054,0.356-0.094,0.524c-0.043,0.18-0.108,0.355-0.124,0.541c-0.023,0.269,0.007,0.543,0.057,0.807
		c0.025,0.139,0.021,0.515,0.218,0.529c0.11,0.009,0.191-0.112,0.285-0.151c0.128-0.053,0.416,0.037,0.502,0.102
		c-0.802,2.427-3.69,4.026-6.163,3.306C4.592,11.995,2.987,9.119,3.724,6.592z"/>
	<path fill="#FF386A" d="M8.82,11.722c0.169-0.065,0.312-0.182,0.48-0.249c0.149-0.06,0.316-0.066,0.463-0.133
		c0.182-0.08,0.223-0.224,0.338-0.368c0.066-0.083,0.148-0.116,0.236-0.173c0.225-0.146,0.391-0.407,0.122-0.604
		c-0.317-0.233-0.694-0.232-0.929-0.588C9.265,9.2,9.035,8.874,8.604,8.622c-0.308-0.18-0.604-0.327-0.926-0.104
		C7.377,8.726,7.104,9.078,7.033,9.441c-0.08,0.411,0.181,0.835,0.414,1.155c0.097,0.134,0.096,0.279,0.043,0.43
		c-0.176,0.5-0.9,0.818-0.574,1.158c0.111,0.116,0.343-0.018,0.454-0.07C7.828,11.895,8.352,11.901,8.82,11.722z"/>
</g>
</svg>
