<?xml version="1.0" encoding="utf-8"?>
<!-- Generator: Adobe Illustrator 16.0.0, SVG Export Plug-In . SVG Version: 6.00 Build 0)  -->
<!DOCTYPE svg PUBLIC "-//W3C//DTD SVG 1.1//EN" "http://www.w3.org/Graphics/SVG/1.1/DTD/svg11.dtd">
<svg version="1.1" id="Layer_1" xmlns="http://www.w3.org/2000/svg" xmlns:xlink="http://www.w3.org/1999/xlink" x="0px" y="0px"
	 width="56.113px" height="45.109px" viewBox="0 0 56.113 45.109" enable-background="new 0 0 56.113 45.109" xml:space="preserve">
<g>
	<g>
		<path fill="#FFB600" d="M26.276,14.879c-0.718,0.731-1.112,1.699-1.111,2.725c0,0.42,0.063,0.83,0.191,1.216l0.012,0.031
			c0.19,0.565,0.506,1.069,0.934,1.498c0.422,0.422,0.94,0.743,1.484,0.927l0.041,0.017c0.39,0.129,0.801,0.193,1.221,0.193
			c1.026-0.001,1.993-0.396,2.719-1.111c0.01-0.009,0.021-0.019,0.047-0.047c0.722-0.729,1.116-1.697,1.117-2.725
			c0-0.42-0.064-0.831-0.203-1.245c-0.189-0.565-0.506-1.07-0.934-1.5c-0.426-0.427-0.933-0.74-1.522-0.941
			c-0.39-0.129-0.799-0.193-1.223-0.193c-1.026,0-1.993,0.396-2.743,1.133L26.276,14.879z M25.76,18.224
			c-0.038-0.204-0.058-0.413-0.058-0.622c0-0.275,0.031-0.547,0.098-0.811c0.011,0.064,0.024,0.132,0.039,0.198
			c0.063,0.281,0.166,0.569,0.299,0.854L25.76,18.224z M28.433,14.396c-0.064-0.016-0.132-0.026-0.197-0.039
			c0.464-0.112,0.955-0.128,1.433-0.04l-0.378,0.379C29.004,14.562,28.717,14.46,28.433,14.396z M29.785,14.965l0.478-0.479
			c0.346,0.136,0.664,0.325,0.948,0.566l-0.563,0.563C30.373,15.368,30.084,15.149,29.785,14.965z M29.656,20.807
			c0.065,0.016,0.133,0.027,0.198,0.039c-0.457,0.114-0.958,0.128-1.433,0.041l0.378-0.38
			C29.087,20.643,29.374,20.743,29.656,20.807z M28.305,20.24l-0.477,0.477c-0.346-0.134-0.663-0.323-0.949-0.567l0.562-0.562
			C27.717,19.835,28.006,20.054,28.305,20.24z M28.867,15.882l0.522-0.522c0.304,0.177,0.597,0.393,0.874,0.644L29.668,16.6
			C29.401,16.344,29.134,16.104,28.867,15.882z M29.666,17.363c0.262,0.271,0.502,0.541,0.715,0.803l-0.773,0.772
			c-0.264-0.217-0.531-0.457-0.801-0.715L29.666,17.363z M29.223,19.323l-0.522,0.521c-0.307-0.177-0.6-0.392-0.874-0.642l0.598-0.6
			C28.683,18.857,28.953,19.097,29.223,19.323z M28.425,17.841c-0.257-0.267-0.497-0.534-0.715-0.802l0.771-0.771
			c0.263,0.214,0.53,0.452,0.803,0.714L28.425,17.841z M27.326,17.424c0.222,0.27,0.462,0.537,0.716,0.801l-0.6,0.599
			c-0.251-0.276-0.466-0.569-0.643-0.874L27.326,17.424z M29.651,19.659c0.218,0.16,0.426,0.303,0.619,0.421
			c0.158,0.096,0.307,0.176,0.441,0.238c-0.278,0.051-0.597,0.039-0.938-0.038c-0.185-0.043-0.374-0.104-0.562-0.182L29.651,19.659z
			 M30.039,19.273l0.677-0.679c0.133,0.184,0.249,0.354,0.345,0.514c0.163,0.27,0.273,0.502,0.32,0.678
			c0.025,0.092,0.027,0.148,0.021,0.176c-0.021,0.005-0.073,0.005-0.178-0.022c-0.173-0.046-0.407-0.156-0.675-0.318
			C30.39,19.52,30.219,19.404,30.039,19.273z M30.764,17.781c-0.218-0.266-0.459-0.532-0.716-0.8l0.597-0.599
			c0.252,0.278,0.47,0.571,0.645,0.873L30.764,17.781z M28.438,15.545c-0.219-0.163-0.427-0.304-0.619-0.42
			c-0.155-0.098-0.304-0.176-0.438-0.239c0.273-0.055,0.594-0.041,0.935,0.038c0.188,0.042,0.375,0.104,0.565,0.183L28.438,15.545z
			 M26.864,15.267c0.175,0.047,0.407,0.156,0.676,0.318c0.16,0.099,0.333,0.214,0.513,0.347l-0.677,0.678
			c-0.129-0.177-0.246-0.351-0.348-0.513c-0.16-0.268-0.271-0.501-0.317-0.678c-0.027-0.102-0.026-0.16-0.027-0.176
			C26.702,15.24,26.753,15.236,26.864,15.267z M26.549,17.436c-0.078-0.189-0.139-0.38-0.182-0.565
			c-0.078-0.342-0.093-0.657-0.038-0.935c0.062,0.137,0.143,0.282,0.237,0.44c0.123,0.201,0.267,0.408,0.423,0.618L26.549,17.436z
			 M26.408,18.341c0.186,0.302,0.403,0.591,0.652,0.862l-0.562,0.562c-0.243-0.284-0.436-0.603-0.568-0.947L26.408,18.341z
			 M31.542,17.768c0.078,0.188,0.139,0.379,0.182,0.565c0.078,0.339,0.09,0.656,0.038,0.934c-0.062-0.137-0.144-0.282-0.239-0.438
			c-0.119-0.195-0.261-0.403-0.421-0.619L31.542,17.768z M31.682,16.863c-0.186-0.301-0.405-0.59-0.654-0.861l0.563-0.562
			c0.243,0.285,0.434,0.604,0.568,0.948L31.682,16.863z M32.29,18.412c-0.013-0.064-0.024-0.132-0.039-0.199
			c-0.065-0.282-0.166-0.569-0.299-0.854l0.379-0.379c0.038,0.202,0.057,0.411,0.057,0.622
			C32.387,17.878,32.354,18.149,32.29,18.412z"/>
		<path fill="#FFB600" d="M31.968,20.61c-0.786,0.767-1.824,1.188-2.923,1.188c-1.121,0-2.174-0.438-2.966-1.229
			c-0.792-0.793-1.229-1.847-1.229-2.967c0-1.402,0.698-2.708,1.867-3.49c0.124-0.083,0.156-0.251,0.075-0.372
			c-0.08-0.122-0.255-0.159-0.375-0.076c-1.319,0.883-2.107,2.354-2.107,3.938c0,1.266,0.493,2.453,1.387,3.35
			c0.828,0.825,1.919,1.312,3.078,1.379v0.833h-1.532c-0.149,0-0.271,0.121-0.271,0.271c0,0.148,0.122,0.271,0.271,0.271h3.606
			c0.149,0,0.271-0.121,0.271-0.271c0-0.147-0.121-0.271-0.271-0.271h-1.534V22.33c1.14-0.063,2.209-0.534,3.031-1.332
			c0.105-0.104,0.107-0.275,0.004-0.382C32.251,20.513,32.073,20.51,31.968,20.61z"/>
	</g>
</g>
</svg>
