<?xml version="1.0" encoding="utf-8"?>
<!-- Generator: Adobe Illustrator 16.0.0, SVG Export Plug-In . SVG Version: 6.00 Build 0)  -->
<!DOCTYPE svg PUBLIC "-//W3C//DTD SVG 1.1//EN" "http://www.w3.org/Graphics/SVG/1.1/DTD/svg11.dtd">
<svg version="1.1" id="Layer_1" xmlns="http://www.w3.org/2000/svg" xmlns:xlink="http://www.w3.org/1999/xlink" x="0px" y="0px"
	 width="19.25px" height="15.5px" viewBox="0 0 19.25 15.5" enable-background="new 0 0 19.25 15.5" xml:space="preserve">
<g>
	<g>
		<path fill="#FFB600" d="M9.702,8.26c1.025,0,1.854-1.007,1.854-2.25c0-1.242-0.272-2.25-1.854-2.25
			c-1.58,0-1.852,1.008-1.852,2.25C7.85,7.253,8.679,8.26,9.702,8.26L9.702,8.26z M9.702,8.26"/>
		<path fill="#FFB600" d="M13.199,11.608c-0.034-2.166-0.318-2.782-2.48-3.174c0,0-0.305,0.388-1.017,0.388
			c-0.709,0-1.015-0.388-1.015-0.388c-2.14,0.386-2.44,0.994-2.479,3.103c-0.004,0.173-0.005,0.183-0.005,0.162
			c0,0.037,0,0.106,0,0.227c0,0,0.515,1.039,3.498,1.039c2.985,0,3.501-1.039,3.501-1.039c0-0.076,0-0.132,0-0.167
			C13.202,11.77,13.201,11.746,13.199,11.608L13.199,11.608z M13.199,11.608"/>
		<path fill="#FFB600" d="M5.663,5.954c0.606,0,1.096-0.597,1.096-1.332c0-0.734-0.161-1.329-1.096-1.329
			c-0.934,0-1.095,0.595-1.095,1.329C4.568,5.357,5.057,5.954,5.663,5.954L5.663,5.954z M5.663,5.954"/>
		<path fill="#FFB600" d="M7.73,7.932C7.709,6.651,7.542,6.288,6.263,6.055c0,0-0.18,0.23-0.601,0.23c-0.42,0-0.6-0.23-0.6-0.23
			C3.797,6.284,3.62,6.643,3.596,7.89C3.594,7.992,3.594,7.998,3.594,7.985c0,0.022,0,0.063,0,0.135c0,0,0.305,0.614,2.068,0.614
			c1.765,0,2.069-0.614,2.069-0.614c0-0.046,0-0.078,0-0.1C7.732,8.027,7.732,8.013,7.73,7.932L7.73,7.932z M7.73,7.932"/>
		<path fill="#FFB600" d="M14.113,5.954c0.604,0,1.095-0.597,1.095-1.332c0-0.734-0.16-1.329-1.095-1.329s-1.096,0.595-1.096,1.329
			C13.017,5.357,13.507,5.954,14.113,5.954L14.113,5.954z M14.113,5.954"/>
		<path fill="#FFB600" d="M16.18,7.932c-0.021-1.281-0.188-1.645-1.468-1.877c0,0-0.181,0.23-0.6,0.23
			c-0.42,0-0.601-0.23-0.601-0.23c-1.266,0.229-1.442,0.588-1.466,1.835c-0.002,0.102-0.003,0.107-0.003,0.095
			c0,0.022,0,0.063,0,0.135c0,0,0.305,0.614,2.069,0.614s2.069-0.614,2.069-0.614c0-0.046,0-0.078,0-0.1
			C16.18,8.027,16.18,8.013,16.18,7.932L16.18,7.932z M16.18,7.932"/>
	</g>
</g>
</svg>
