<?xml version="1.0" encoding="utf-8"?>
<!-- Generator: Adobe Illustrator 16.0.0, SVG Export Plug-In . SVG Version: 6.00 Build 0)  -->
<!DOCTYPE svg PUBLIC "-//W3C//DTD SVG 1.1//EN" "http://www.w3.org/Graphics/SVG/1.1/DTD/svg11.dtd">
<svg version="1.1" id="Layer_1" xmlns="http://www.w3.org/2000/svg" xmlns:xlink="http://www.w3.org/1999/xlink" x="0px" y="0px"
	 width="16.799px" height="16.293px" viewBox="0 0 16.799 16.293" enable-background="new 0 0 16.799 16.293" xml:space="preserve">
<path fill="#FF386A" d="M7.766,3.391v1.516c0,0.107-0.036,0.196-0.108,0.27c-0.075,0.073-0.164,0.11-0.27,0.11H5.872
	c-0.106,0-0.197-0.037-0.27-0.11s-0.11-0.162-0.11-0.27V3.391c0-0.105,0.038-0.196,0.11-0.269c0.072-0.074,0.163-0.11,0.27-0.11
	h1.517c0.105,0,0.194,0.036,0.27,0.11C7.73,3.195,7.766,3.286,7.766,3.391z M7.766,6.423V7.94c0,0.106-0.036,0.197-0.108,0.27
	c-0.075,0.072-0.164,0.11-0.27,0.11H5.872c-0.106,0-0.197-0.038-0.27-0.11s-0.11-0.163-0.11-0.27V6.423
	c0-0.105,0.038-0.195,0.11-0.269s0.163-0.109,0.27-0.109h1.517c0.105,0,0.194,0.036,0.27,0.109C7.73,6.228,7.766,6.318,7.766,6.423z
	 M7.766,9.458v1.517c0,0.105-0.036,0.195-0.108,0.269c-0.075,0.073-0.164,0.109-0.27,0.109H5.872c-0.106,0-0.197-0.036-0.27-0.109
	s-0.11-0.163-0.11-0.269V9.458c0-0.106,0.038-0.195,0.11-0.27s0.163-0.11,0.27-0.11h1.517c0.105,0,0.194,0.036,0.27,0.11
	C7.73,9.262,7.766,9.351,7.766,9.458z M10.799,3.391v1.516c0,0.107-0.036,0.196-0.11,0.27c-0.073,0.073-0.163,0.11-0.269,0.11H8.905
	c-0.107,0-0.197-0.037-0.27-0.11c-0.074-0.073-0.11-0.162-0.11-0.27V3.391c0-0.105,0.036-0.196,0.11-0.269
	c0.072-0.074,0.162-0.11,0.27-0.11h1.516c0.105,0,0.195,0.036,0.269,0.11C10.763,3.195,10.799,3.286,10.799,3.391z M10.799,6.423
	V7.94c0,0.106-0.036,0.197-0.11,0.27c-0.073,0.072-0.163,0.11-0.269,0.11H8.905c-0.107,0-0.197-0.038-0.27-0.11
	c-0.074-0.072-0.11-0.163-0.11-0.27V6.423c0-0.105,0.036-0.195,0.11-0.269c0.072-0.073,0.162-0.109,0.27-0.109h1.516
	c0.105,0,0.195,0.036,0.269,0.109C10.763,6.228,10.799,6.318,10.799,6.423z M10.799,9.458v1.517c0,0.105-0.036,0.195-0.11,0.269
	c-0.073,0.073-0.163,0.109-0.269,0.109H8.905c-0.107,0-0.197-0.036-0.27-0.109c-0.074-0.073-0.11-0.163-0.11-0.269V9.458
	c0-0.106,0.036-0.195,0.11-0.27c0.072-0.074,0.162-0.11,0.27-0.11h1.516c0.105,0,0.195,0.036,0.269,0.11
	C10.763,9.262,10.799,9.351,10.799,9.458z M13.833,3.391v1.516c0,0.107-0.037,0.196-0.11,0.27c-0.074,0.073-0.163,0.11-0.269,0.11
	h-1.517c-0.106,0-0.196-0.037-0.27-0.11s-0.11-0.162-0.11-0.27V3.391c0-0.105,0.037-0.196,0.11-0.269
	c0.073-0.074,0.163-0.11,0.27-0.11h1.517c0.105,0,0.194,0.036,0.269,0.11C13.795,3.195,13.833,3.286,13.833,3.391z M13.833,6.423
	V7.94c0,0.106-0.037,0.197-0.11,0.27c-0.074,0.072-0.163,0.11-0.269,0.11h-1.517c-0.106,0-0.196-0.038-0.27-0.11
	s-0.11-0.163-0.11-0.27V6.423c0-0.105,0.037-0.195,0.11-0.269s0.163-0.109,0.27-0.109h1.517c0.105,0,0.194,0.036,0.269,0.109
	C13.795,6.228,13.833,6.318,13.833,6.423z M13.833,9.458v1.517c0,0.105-0.037,0.195-0.11,0.269
	c-0.074,0.073-0.163,0.109-0.269,0.109h-1.517c-0.106,0-0.196-0.036-0.27-0.109s-0.11-0.163-0.11-0.269V9.458
	c0-0.106,0.037-0.195,0.11-0.27s0.163-0.11,0.27-0.11h1.517c0.105,0,0.194,0.036,0.269,0.11C13.795,9.262,13.833,9.351,13.833,9.458
	z"/>
</svg>
