<?xml version="1.0" encoding="utf-8"?>
<!-- Generator: Adobe Illustrator 16.0.0, SVG Export Plug-In . SVG Version: 6.00 Build 0)  -->
<!DOCTYPE svg PUBLIC "-//W3C//DTD SVG 1.1//EN" "http://www.w3.org/Graphics/SVG/1.1/DTD/svg11.dtd">
<svg version="1.1" id="Layer_1" xmlns="http://www.w3.org/2000/svg" xmlns:xlink="http://www.w3.org/1999/xlink" x="0px" y="0px"
	 width="16.799px" height="16.293px" viewBox="0 0 16.799 16.293" enable-background="new 0 0 16.799 16.293" xml:space="preserve">
<path fill="#FFB600" d="M7.683,3.225V4.74c0,0.107-0.036,0.196-0.108,0.27C7.499,5.083,7.41,5.12,7.305,5.12H5.788
	c-0.106,0-0.197-0.037-0.27-0.11s-0.11-0.162-0.11-0.27V3.225c0-0.105,0.038-0.196,0.11-0.269c0.072-0.074,0.163-0.11,0.27-0.11
	h1.517c0.105,0,0.194,0.036,0.27,0.11C7.646,3.028,7.683,3.119,7.683,3.225z M7.683,6.257v1.517c0,0.106-0.036,0.197-0.108,0.27
	c-0.075,0.072-0.164,0.11-0.27,0.11H5.788c-0.106,0-0.197-0.038-0.27-0.11s-0.11-0.163-0.11-0.27V6.257
	c0-0.105,0.038-0.195,0.11-0.269s0.163-0.109,0.27-0.109h1.517c0.105,0,0.194,0.036,0.27,0.109C7.646,6.062,7.683,6.151,7.683,6.257
	z M7.683,9.291v1.517c0,0.105-0.036,0.195-0.108,0.269c-0.075,0.073-0.164,0.109-0.27,0.109H5.788c-0.106,0-0.197-0.036-0.27-0.109
	s-0.11-0.163-0.11-0.269V9.291c0-0.106,0.038-0.195,0.11-0.27s0.163-0.11,0.27-0.11h1.517c0.105,0,0.194,0.036,0.27,0.11
	C7.646,9.096,7.683,9.185,7.683,9.291z M10.716,3.225V4.74c0,0.107-0.036,0.196-0.11,0.27c-0.073,0.073-0.163,0.11-0.269,0.11H8.821
	c-0.107,0-0.197-0.037-0.27-0.11c-0.074-0.073-0.11-0.162-0.11-0.27V3.225c0-0.105,0.036-0.196,0.11-0.269
	c0.072-0.074,0.162-0.11,0.27-0.11h1.516c0.105,0,0.195,0.036,0.269,0.11C10.68,3.028,10.716,3.119,10.716,3.225z M10.716,6.257
	v1.517c0,0.106-0.036,0.197-0.11,0.27c-0.073,0.072-0.163,0.11-0.269,0.11H8.821c-0.107,0-0.197-0.038-0.27-0.11
	c-0.074-0.072-0.11-0.163-0.11-0.27V6.257c0-0.105,0.036-0.195,0.11-0.269c0.072-0.073,0.162-0.109,0.27-0.109h1.516
	c0.105,0,0.195,0.036,0.269,0.109C10.68,6.062,10.716,6.151,10.716,6.257z M10.716,9.291v1.517c0,0.105-0.036,0.195-0.11,0.269
	c-0.073,0.073-0.163,0.109-0.269,0.109H8.821c-0.107,0-0.197-0.036-0.27-0.109c-0.074-0.073-0.11-0.163-0.11-0.269V9.291
	c0-0.106,0.036-0.195,0.11-0.27c0.072-0.074,0.162-0.11,0.27-0.11h1.516c0.105,0,0.195,0.036,0.269,0.11
	C10.68,9.096,10.716,9.185,10.716,9.291z M13.749,3.225V4.74c0,0.107-0.037,0.196-0.11,0.27c-0.074,0.073-0.163,0.11-0.269,0.11
	h-1.517c-0.106,0-0.196-0.037-0.27-0.11s-0.11-0.162-0.11-0.27V3.225c0-0.105,0.037-0.196,0.11-0.269
	c0.073-0.074,0.163-0.11,0.27-0.11h1.517c0.105,0,0.194,0.036,0.269,0.11C13.712,3.028,13.749,3.119,13.749,3.225z M13.749,6.257
	v1.517c0,0.106-0.037,0.197-0.11,0.27c-0.074,0.072-0.163,0.11-0.269,0.11h-1.517c-0.106,0-0.196-0.038-0.27-0.11
	s-0.11-0.163-0.11-0.27V6.257c0-0.105,0.037-0.195,0.11-0.269s0.163-0.109,0.27-0.109h1.517c0.105,0,0.194,0.036,0.269,0.109
	C13.712,6.062,13.749,6.151,13.749,6.257z M13.749,9.291v1.517c0,0.105-0.037,0.195-0.11,0.269
	c-0.074,0.073-0.163,0.109-0.269,0.109h-1.517c-0.106,0-0.196-0.036-0.27-0.109s-0.11-0.163-0.11-0.269V9.291
	c0-0.106,0.037-0.195,0.11-0.27s0.163-0.11,0.27-0.11h1.517c0.105,0,0.194,0.036,0.269,0.11C13.712,9.096,13.749,9.185,13.749,9.291
	z"/>
</svg>
