<?xml version="1.0" encoding="utf-8"?>
<!-- Generator: Adobe Illustrator 16.0.0, SVG Export Plug-In . SVG Version: 6.00 Build 0)  -->
<!DOCTYPE svg PUBLIC "-//W3C//DTD SVG 1.1//EN" "http://www.w3.org/Graphics/SVG/1.1/DTD/svg11.dtd">
<svg version="1.1" id="Layer_1" xmlns="http://www.w3.org/2000/svg" xmlns:xlink="http://www.w3.org/1999/xlink" x="0px" y="0px"
	 width="16.799px" height="16.293px" viewBox="0 0 16.799 16.293" enable-background="new 0 0 16.799 16.293" xml:space="preserve">
<path fill="#FF386A" d="M12.337,10.705v0.969H4.214v-0.969l2.707-1.739V8.291c-0.166,0-0.321-0.168-0.463-0.504
	c-0.143-0.339-0.213-0.62-0.213-0.852V5.583c0-0.561,0.199-1.04,0.596-1.436c0.396-0.398,0.876-0.597,1.435-0.597
	c0.56,0,1.038,0.198,1.435,0.597c0.397,0.396,0.597,0.875,0.597,1.436v1.353c0,0.231-0.07,0.513-0.214,0.852
	C9.952,8.123,9.797,8.291,9.63,8.291v0.675L12.337,10.705z"/>
</svg>
