<?xml version="1.0" encoding="utf-8"?>
<!-- Generator: Adobe Illustrator 16.0.0, SVG Export Plug-In . SVG Version: 6.00 Build 0)  -->
<!DOCTYPE svg PUBLIC "-//W3C//DTD SVG 1.1//EN" "http://www.w3.org/Graphics/SVG/1.1/DTD/svg11.dtd">
<svg version="1.1" id="Layer_1" xmlns="http://www.w3.org/2000/svg" xmlns:xlink="http://www.w3.org/1999/xlink" x="0px" y="0px"
	 width="16.799px" height="16.293px" viewBox="0 0 16.799 16.293" enable-background="new 0 0 16.799 16.293" xml:space="preserve">
<path fill="#FFB600" d="M9.66,8.352l2.001,1.792c0.032,0.031,0.048,0.069,0.051,0.112c0.002,0.041-0.01,0.08-0.038,0.116
	l-0.651,0.727c-0.032,0.031-0.069,0.049-0.111,0.052c-0.042,0.001-0.081-0.012-0.116-0.04L8.793,9.318
	C8.31,9.676,7.77,9.87,7.171,9.903C6.327,9.949,5.59,9.691,4.958,9.124c-0.632-0.563-0.97-1.268-1.017-2.111
	C3.895,6.17,4.154,5.433,4.719,4.801c0.566-0.632,1.27-0.972,2.113-1.017c0.843-0.049,1.58,0.212,2.213,0.777
	c0.63,0.565,0.97,1.271,1.016,2.113C10.095,7.271,9.961,7.831,9.66,8.352z M5.441,5.451C5.055,5.884,4.876,6.386,4.909,6.96
	C4.94,7.532,5.172,8.012,5.604,8.398S6.539,8.962,7.117,8.93c0.576-0.03,1.057-0.263,1.442-0.691
	c0.384-0.429,0.56-0.933,0.528-1.511C9.055,6.149,8.825,5.671,8.396,5.285c-0.43-0.386-0.934-0.56-1.511-0.528
	C6.309,4.789,5.826,5.021,5.441,5.451z"/>
</svg>
