<?xml version="1.0" encoding="utf-8"?>
<!-- Generator: Adobe Illustrator 16.0.0, SVG Export Plug-In . SVG Version: 6.00 Build 0)  -->
<!DOCTYPE svg PUBLIC "-//W3C//DTD SVG 1.1//EN" "http://www.w3.org/Graphics/SVG/1.1/DTD/svg11.dtd">
<svg version="1.1" id="Layer_1" xmlns="http://www.w3.org/2000/svg" xmlns:xlink="http://www.w3.org/1999/xlink" x="0px" y="0px"
	 width="151px" height="165px" viewBox="0 0 151 165" enable-background="new 0 0 151 165" xml:space="preserve">
<g>
	<g>
		<polygon fill="#FFFFFF" points="85.895,66.94 77.7,71.03 69.517,75.117 61.348,71.03 53.165,66.94 53.165,58.755 53.165,50.584 
			44.981,54.668 44.981,62.842 44.981,71.03 44.981,79.21 53.165,83.302 61.348,87.386 69.517,91.477 77.7,87.386 85.895,83.302 
			94.061,79.21 94.061,71.03 94.061,62.842 94.061,54.668 85.895,50.584 85.895,58.755 		"/>
		<polygon fill="#FFFFFF" points="102.245,17.853 94.068,21.943 94.061,21.943 85.895,26.035 85.895,34.215 77.7,30.125 
			69.517,26.035 61.348,30.125 53.165,34.215 53.165,26.035 44.981,21.943 44.981,21.943 36.798,17.853 28.627,21.943 
			36.798,26.035 36.798,26.035 36.798,34.215 44.981,38.3 44.981,46.487 53.165,50.584 61.348,54.668 69.517,58.755 77.7,54.668 
			85.895,50.584 94.061,46.487 94.061,38.3 102.245,34.215 102.245,26.035 110.426,21.943 		"/>
	</g>
	<g>
		<path fill="#FFFFFF" d="M43.245,128.368c0,1.396-0.211,2.672-0.625,3.841c-0.415,1.171-0.988,2.174-1.721,3.001
			c-0.729,0.839-1.607,1.487-2.623,1.949c-1.022,0.467-2.12,0.698-3.303,0.698s-2.279-0.231-3.284-0.698
			c-1.01-0.462-1.879-1.11-2.607-1.949c-0.731-0.827-1.306-1.83-1.72-3.001c-0.42-1.169-0.631-2.445-0.631-3.841
			c0-1.394,0.211-2.673,0.631-3.839c0.414-1.176,0.989-2.18,1.72-3.029c0.729-0.85,1.598-1.497,2.607-1.964
			c1.005-0.457,2.101-0.699,3.284-0.699c1.183,0,2.281,0.242,3.303,0.699c1.015,0.467,1.894,1.114,2.623,1.964
			c0.733,0.85,1.306,1.854,1.721,3.029C43.034,125.695,43.245,126.975,43.245,128.368z M38.377,128.368
			c0-1.402-0.276-2.573-0.834-3.519c-0.555-0.943-1.409-1.416-2.569-1.416c-1.159,0-2.012,0.467-2.555,1.396
			c-0.547,0.938-0.819,2.115-0.819,3.537c0,1.426,0.271,2.597,0.819,3.519c0.543,0.921,1.396,1.382,2.555,1.382
			c0.577,0,1.08-0.131,1.514-0.401c0.424-0.267,0.779-0.628,1.055-1.085c0.276-0.449,0.487-0.977,0.628-1.574
			C38.312,129.614,38.377,129,38.377,128.368z"/>
		<path fill="#FFFFFF" d="M63.166,137.938v-1.606c-0.468,0.392-1.005,0.743-1.618,1.055c-0.617,0.312-1.363,0.472-2.242,0.472
			c-0.975,0-1.887-0.186-2.746-0.558c-0.859-0.366-1.613-0.954-2.261-1.758c-0.648-0.8-1.16-1.802-1.53-3.017
			c-0.371-1.213-0.553-2.688-0.553-4.403c0-1.367,0.154-2.617,0.468-3.754c0.314-1.136,0.771-2.115,1.374-2.938
			c0.604-0.818,1.342-1.457,2.221-1.908c0.885-0.459,1.891-0.685,3.027-0.685c0.811,0,1.547,0.142,2.207,0.422
			c0.658,0.277,1.211,0.613,1.653,1.011v-7.388l4.796,2.201v22.854H63.166z M63.166,124.925c-0.764-1.039-1.844-1.562-3.235-1.562
			c-1.902,0-2.848,1.553-2.848,4.658c0,1.877,0.285,3.233,0.849,4.065c0.57,0.834,1.326,1.251,2.28,1.251
			c0.738,0,1.326-0.141,1.769-0.417c0.437-0.28,0.834-0.644,1.186-1.11L63.166,124.925L63.166,124.925z"/>
		<polygon fill="#FFFFFF" points="83.846,120.977 83.846,127.357 83.846,132.018 83.846,137.938 79.048,137.938 79.048,118.579 		
			"/>
		<path fill="#FFFFFF" d="M109.044,121.083c-1.084-1.493-2.79-2.246-5.106-2.246c-0.972,0-1.83,0.161-2.554,0.474
			c-0.733,0.312-1.305,0.692-1.724,1.129v-2.633l-4.792,2.397v7.153v4.66v5.92h4.792v-10.465c0.005-1.562,0.275-2.633,0.818-3.226
			c0.543-0.588,1.315-0.886,2.312-0.886c0.994,0,1.759,0.304,2.294,0.904c0.532,0.6,0.796,1.715,0.796,3.338v10.332h4.797v-10.75
			C110.677,124.615,110.135,122.58,109.044,121.083z"/>
	</g>
</g>
</svg>
