<?xml version="1.0" encoding="utf-8"?>
<!-- Generator: Adobe Illustrator 16.0.0, SVG Export Plug-In . SVG Version: 6.00 Build 0)  -->
<!DOCTYPE svg PUBLIC "-//W3C//DTD SVG 1.1//EN" "http://www.w3.org/Graphics/SVG/1.1/DTD/svg11.dtd">
<svg version="1.1" id="Layer_1" xmlns="http://www.w3.org/2000/svg" xmlns:xlink="http://www.w3.org/1999/xlink" x="0px" y="0px"
	 width="81px" height="31px" viewBox="0 0 81 31" enable-background="new 0 0 81 31" xml:space="preserve">
<g>
	<g>
		<path fill="#FFFFFF" d="M41.776,16.565c0,0.536-0.081,1.024-0.239,1.473c-0.159,0.448-0.378,0.833-0.66,1.15
			c-0.279,0.321-0.615,0.57-1.005,0.748c-0.392,0.178-0.813,0.268-1.266,0.268c-0.454,0-0.874-0.089-1.259-0.268
			c-0.387-0.178-0.721-0.427-0.999-0.748c-0.281-0.317-0.501-0.702-0.66-1.15c-0.161-0.448-0.242-0.937-0.242-1.473
			c0-0.534,0.081-1.024,0.242-1.471c0.159-0.451,0.379-0.835,0.66-1.162c0.278-0.324,0.612-0.573,0.999-0.752
			c0.386-0.176,0.806-0.269,1.259-0.269c0.453,0,0.874,0.093,1.266,0.269c0.39,0.179,0.726,0.428,1.005,0.752
			c0.282,0.327,0.501,0.711,0.66,1.162C41.695,15.541,41.776,16.031,41.776,16.565z M39.912,16.565c0-0.538-0.106-0.986-0.32-1.348
			c-0.212-0.361-0.54-0.543-0.984-0.543s-0.772,0.18-0.98,0.536c-0.21,0.36-0.313,0.811-0.313,1.356
			c0,0.547,0.104,0.996,0.313,1.349c0.208,0.353,0.536,0.53,0.98,0.53c0.221,0,0.414-0.05,0.58-0.154
			c0.162-0.102,0.298-0.24,0.404-0.416c0.105-0.172,0.187-0.375,0.241-0.604C39.886,17.043,39.912,16.808,39.912,16.565z"/>
		<path fill="#FFFFFF" d="M49.413,20.233v-0.615c-0.18,0.149-0.386,0.284-0.621,0.403c-0.236,0.12-0.522,0.182-0.859,0.182
			c-0.374,0-0.723-0.071-1.052-0.214c-0.33-0.142-0.619-0.366-0.866-0.674c-0.249-0.307-0.446-0.691-0.587-1.156
			c-0.142-0.465-0.212-1.03-0.212-1.688c0-0.524,0.06-1.003,0.18-1.439c0.121-0.435,0.296-0.811,0.527-1.126
			c0.231-0.314,0.514-0.559,0.851-0.732c0.339-0.175,0.725-0.263,1.161-0.263c0.311,0,0.593,0.055,0.847,0.162
			c0.252,0.107,0.464,0.235,0.633,0.388v-2.832l1.839,0.844v8.761H49.413z M49.413,15.246c-0.293-0.398-0.707-0.599-1.241-0.599
			c-0.729,0-1.091,0.594-1.091,1.785c0,0.719,0.109,1.24,0.325,1.559c0.219,0.319,0.509,0.479,0.874,0.479
			c0.282,0,0.508-0.054,0.677-0.16c0.168-0.107,0.32-0.246,0.455-0.425V15.246z"/>
		<polygon fill="#FFFFFF" points="57.339,13.733 57.339,16.179 57.339,17.964 57.339,20.233 55.501,20.233 55.501,12.812 		"/>
		<path fill="#FFFFFF" d="M66.999,13.772c-0.416-0.573-1.07-0.861-1.958-0.861c-0.373,0-0.702,0.062-0.979,0.182
			c-0.281,0.119-0.5,0.266-0.66,0.433v-1.01l-1.837,0.919v2.744v1.786v2.269h1.837v-4.011c0.002-0.6,0.105-1.009,0.312-1.237
			c0.209-0.225,0.505-0.338,0.887-0.338s0.674,0.115,0.879,0.347c0.205,0.229,0.306,0.656,0.306,1.278v3.961h1.839v-4.121
			C67.625,15.126,67.417,14.347,66.999,13.772z"/>
	</g>
	<g>
		<polygon fill="#FFFFFF" points="23.506,17.643 21.742,18.524 19.979,19.404 18.219,18.524 16.457,17.643 16.457,15.88 
			16.457,14.12 14.694,15 14.694,16.761 14.694,18.524 14.694,20.287 16.457,21.168 18.219,22.047 19.979,22.929 21.742,22.047 
			23.506,21.168 25.266,20.287 25.266,18.524 25.266,16.761 25.266,15 23.506,14.12 23.506,15.88 		"/>
		<polygon fill="#FFFFFF" points="27.029,7.069 25.268,7.951 25.266,7.951 23.506,8.832 23.506,10.594 21.742,9.713 19.979,8.832 
			18.219,9.713 16.457,10.594 16.457,8.832 14.694,7.951 14.694,7.951 12.931,7.069 11.171,7.951 12.931,8.832 12.931,8.832 
			12.931,10.594 14.694,11.474 14.694,13.237 16.457,14.12 18.219,15 19.979,15.88 21.742,15 23.506,14.12 25.266,13.237 
			25.266,11.474 27.029,10.594 27.029,8.832 28.791,7.951 		"/>
	</g>
</g>
</svg>
